<?xml version="1.0" encoding="UTF-8"?><svg id="Capa_1" xmlns="http://www.w3.org/2000/svg" xmlns:xlink="http://www.w3.org/1999/xlink" viewBox="0 0 4776.85 5621.23"><defs><style>.cls-1{fill:#f9c232;}.cls-1,.cls-2,.cls-3{stroke-width:0px;}.cls-2{fill:none;}.cls-4{clip-path:url(#clippath);}.cls-3{fill:#e20d7e;}</style><clipPath id="clippath"><rect class="cls-2" x="1339.15" y="4233.18" width="1097.04" height="1052.92" transform="translate(3775.35 9519.28) rotate(180)"/></clipPath></defs><g class="cls-4"><path class="cls-1" d="m4138.9,5385.64c-159.99,105.69-335.97,176.9-523.06,211.65-180.63,33.55-363.86,31.83-544.59-5.11-180.74-36.94-349.94-107.25-502.92-208.99-158.45-105.37-292.37-239.92-398.07-399.91s-176.9-335.97-211.65-523.06c-33.55-180.63-31.83-363.85,5.11-544.59,36.94-180.74,107.25-349.94,208.99-502.92,105.37-158.44,239.92-292.37,399.91-398.06,159.99-105.69,335.97-176.9,523.06-211.65,180.63-33.55,363.85-31.83,544.59,5.11,180.74,36.94,349.95,107.25,502.92,208.98,158.45,105.37,292.38,239.92,398.07,399.91,105.69,159.99,176.9,335.97,211.65,523.06,33.55,180.63,31.83,363.85-5.11,544.59-36.94,180.74-107.25,349.94-208.98,502.92-105.37,158.44-239.92,292.37-399.91,398.06Zm-1418.22-2146.85c-530.09,350.18-676.46,1066.33-326.28,1596.42,350.18,530.09,1066.33,676.46,1596.42,326.28,530.09-350.18,676.46-1066.33,326.28-1596.43-350.18-530.09-1066.33-676.46-1596.42-326.28Z"/><path class="cls-3" d="m3418.22,4042.17c-248.11,163.9-521.01,274.33-811.13,328.22-280.11,52.03-564.25,49.37-844.53-7.92-280.28-57.29-542.67-166.32-779.91-324.09-245.71-163.4-453.4-372.05-617.3-620.16-163.9-248.11-274.33-521.01-328.22-811.13-52.03-280.11-49.36-564.25,7.92-844.53,57.28-280.28,166.32-542.67,324.09-779.91,163.4-245.71,372.05-453.4,620.16-617.3,248.1-163.9,521.01-274.33,811.13-328.22,280.11-52.03,564.25-49.36,844.53,7.92,280.28,57.28,542.68,166.32,779.91,324.08,245.71,163.4,453.4,372.05,617.3,620.16,163.9,248.11,274.33,521.01,328.22,811.14,52.03,280.11,49.36,564.25-7.92,844.53-57.28,280.28-166.32,542.67-324.08,779.91-163.41,245.71-372.06,453.4-620.16,617.3ZM1218.91,712.94C396.87,1255.98,169.89,2366.56,712.94,3188.59c543.05,822.04,1653.62,1049.02,2475.66,505.98,822.04-543.05,1049.02-1653.62,505.98-2475.66C3151.53,396.87,2040.96,169.89,1218.91,712.94Z"/></g></svg>